<?xml version="1.0" encoding="utf-8"?>
<!-- Generator: Adobe Illustrator 27.5.0, SVG Export Plug-In . SVG Version: 6.00 Build 0)  -->
<svg version="1.1" xmlns="http://www.w3.org/2000/svg" xmlns:xlink="http://www.w3.org/1999/xlink" x="0px" y="0px"
	 viewBox="0 0 1920 1080" style="enable-background:new 0 0 1920 1080;" xml:space="preserve">
<g id="BACKGROUND">
	<rect style="fill:#D3F2EA;" width="1920" height="1080"/>
</g>
<g id="OBJECTS">
	<g>
		<defs>
			<rect id="SVGID_1_" width="1920" height="1080"/>
		</defs>
		<clipPath id="SVGID_00000003101981092505686460000013713661033998272439_">
			<use xlink:href="#SVGID_1_"  style="overflow:visible;"/>
		</clipPath>
		<path style="opacity:0.28;clip-path:url(#SVGID_00000003101981092505686460000013713661033998272439_);fill:#81D9D8;" d="
			M1066.489,1112.686c0,0-194.165-213.943-81.633-470.88S621.464,220.319,804.175-79.551l1171.359,44.865v1147.372H1066.489z"/>
		
			<linearGradient id="SVGID_00000036218451070357847120000004582360587932857263_" gradientUnits="userSpaceOnUse" x1="1960.5402" y1="-44.0584" x2="1134.6963" y2="781.7855">
			<stop  offset="0" style="stop-color:#FFFFFF;stop-opacity:0"/>
			<stop  offset="1" style="stop-color:#FFFFFF"/>
		</linearGradient>
		
			<path style="clip-path:url(#SVGID_00000003101981092505686460000013713661033998272439_);fill:url(#SVGID_00000036218451070357847120000004582360587932857263_);" d="
			M784.191-33.826c0,0-77.081,218.865,205.55,310.645c282.631,91.78,414.502,203.056,378.988,365.846
			c-35.513,162.79-113.487,519.584,328.336,489.254h253.614V-53.92L784.191-33.826z"/>
		<polygon style="opacity:0.7;clip-path:url(#SVGID_00000003101981092505686460000013713661033998272439_);fill:#D3F2EA;" points="
			721.508,203.135 708.226,203.135 708.226,189.854 688.259,189.854 688.259,203.135 674.977,203.135 674.977,223.102 
			688.259,223.102 688.259,236.384 708.226,236.384 708.226,223.102 721.508,223.102 		"/>
		<polygon style="opacity:0.7;clip-path:url(#SVGID_00000003101981092505686460000013713661033998272439_);fill:#D3F2EA;" points="
			880.264,711.081 866.982,711.081 866.982,697.8 847.015,697.8 847.015,711.081 833.733,711.081 833.733,731.048 847.015,731.048 
			847.015,744.33 866.982,744.33 866.982,731.048 880.264,731.048 		"/>
		<polygon style="opacity:0.7;clip-path:url(#SVGID_00000003101981092505686460000013713661033998272439_);fill:#D3F2EA;" points="
			238.786,984.177 219.721,984.177 219.721,965.112 191.059,965.112 191.059,984.177 171.994,984.177 171.994,1012.839 
			191.059,1012.839 191.059,1031.905 219.721,1031.905 219.721,1012.839 238.786,1012.839 		"/>
		<polygon style="opacity:0.7;clip-path:url(#SVGID_00000003101981092505686460000013713661033998272439_);fill:#D3F2EA;" points="
			1443.195,250.089 1424.129,250.089 1424.129,231.024 1395.467,231.024 1395.467,250.089 1376.402,250.089 1376.402,278.752 
			1395.467,278.752 1395.467,297.817 1424.129,297.817 1424.129,278.752 1443.195,278.752 		"/>
		<polygon style="opacity:0.7;clip-path:url(#SVGID_00000003101981092505686460000013713661033998272439_);fill:#D3F2EA;" points="
			36.297,429.465 17.231,429.465 17.231,410.4 -11.431,410.4 -11.431,429.465 -30.496,429.465 -30.496,458.127 -11.431,458.127 
			-11.431,477.192 17.231,477.192 17.231,458.127 36.297,458.127 		"/>
		<path style="clip-path:url(#SVGID_00000003101981092505686460000013713661033998272439_);fill:#81D9D8;" d="M337.992,815.291
			H120.656c-17.183,0-31.112-13.929-31.112-31.112l0,0c0-17.183,13.929-31.112,31.112-31.112h217.336
			c17.183,0,31.112,13.929,31.112,31.112l0,0C369.104,801.362,355.175,815.291,337.992,815.291z"/>
		
			<radialGradient id="SVGID_00000156557382095127786710000001160230610873336496_" cx="564.8718" cy="1224.853" r="252.2718" gradientUnits="userSpaceOnUse">
			<stop  offset="0" style="stop-color:#FFFFFF;stop-opacity:0"/>
			<stop  offset="1" style="stop-color:#FFFFFF"/>
		</radialGradient>
		
			<circle style="clip-path:url(#SVGID_00000003101981092505686460000013713661033998272439_);fill:url(#SVGID_00000156557382095127786710000001160230610873336496_);" cx="564.872" cy="1224.853" r="107.882"/>
		<g style="clip-path:url(#SVGID_00000003101981092505686460000013713661033998272439_);">
			<polygon style="fill:#52A39E;" points="165.335,110.584 143.702,110.584 143.702,88.95 111.178,88.95 111.178,110.584 
				89.544,110.584 89.544,143.107 111.178,143.107 111.178,164.742 143.702,164.742 143.702,143.107 165.335,143.107 			"/>
			<polygon style="fill:#FFFFFF;" points="148.324,122.569 139.288,122.569 139.288,113.534 125.704,113.534 125.704,122.569 
				116.668,122.569 116.668,136.154 125.704,136.154 125.704,145.189 139.288,145.189 139.288,136.154 148.324,136.154 			"/>
		</g>
		
			<radialGradient id="SVGID_00000035507522540097451690000013185893200071891847_" cx="1496.4608" cy="-224.1496" r="137.9029" gradientTransform="matrix(-0.1745 0.9847 -0.9847 -0.1745 1840.9504 -740.3324)" gradientUnits="userSpaceOnUse">
			<stop  offset="0" style="stop-color:#FFFFFF;stop-opacity:0"/>
			<stop  offset="1" style="stop-color:#FFFFFF"/>
		</radialGradient>
		
			<circle style="opacity:0.58;clip-path:url(#SVGID_00000003101981092505686460000013713661033998272439_);fill:url(#SVGID_00000035507522540097451690000013185893200071891847_);" cx="1800.538" cy="772.347" r="58.975"/>
		
			<radialGradient id="SVGID_00000065050216512345112020000014687506841912925625_" cx="1903.1531" cy="115.5118" r="137.903" gradientTransform="matrix(-0.1745 0.9847 -0.9847 -0.1745 1840.9504 -740.3324)" gradientUnits="userSpaceOnUse">
			<stop  offset="0" style="stop-color:#FFFFFF;stop-opacity:0"/>
			<stop  offset="1" style="stop-color:#FFFFFF"/>
		</radialGradient>
		
			<circle style="opacity:0.58;clip-path:url(#SVGID_00000003101981092505686460000013713661033998272439_);fill:url(#SVGID_00000065050216512345112020000014687506841912925625_);" cx="1395.106" cy="1113.546" r="58.975"/>
		
			<radialGradient id="SVGID_00000065784164710512096170000010149698895205112228_" cx="1616.1697" cy="-117.6527" r="68.9515" gradientTransform="matrix(-0.1745 0.9847 -0.9847 -0.1745 1840.9504 -740.3324)" gradientUnits="userSpaceOnUse">
			<stop  offset="0" style="stop-color:#FFFFFF;stop-opacity:0"/>
			<stop  offset="1" style="stop-color:#FFFFFF"/>
		</radialGradient>
		
			<circle style="opacity:0.58;clip-path:url(#SVGID_00000003101981092505686460000013713661033998272439_);fill:url(#SVGID_00000065784164710512096170000010149698895205112228_);" cx="1674.781" cy="871.64" r="29.488"/>
		
			<radialGradient id="SVGID_00000049941479107914210700000012563548279900192918_" cx="1413.8247" cy="-104.4248" r="43.8492" gradientTransform="matrix(-0.1745 0.9847 -0.9847 -0.1745 1840.9504 -740.3324)" gradientUnits="userSpaceOnUse">
			<stop  offset="0" style="stop-color:#FFFFFF;stop-opacity:0"/>
			<stop  offset="1" style="stop-color:#FFFFFF"/>
		</radialGradient>
		
			<path style="opacity:0.58;clip-path:url(#SVGID_00000003101981092505686460000013713661033998272439_);fill:url(#SVGID_00000049941479107914210700000012563548279900192918_);" d="
			M1693.793,688.548c-10.198-1.807-17-11.539-15.193-21.737c1.807-10.198,11.538-17,21.736-15.193
			c10.198,1.807,17,11.538,15.193,21.736C1713.723,683.552,1703.991,690.355,1693.793,688.548z"/>
		
			<radialGradient id="SVGID_00000072976316145537598940000018375497619415911829_" cx="1777.6594" cy="19.3015" r="43.8492" gradientTransform="matrix(-0.1745 0.9847 -0.9847 -0.1745 1840.9504 -740.3324)" gradientUnits="userSpaceOnUse">
			<stop  offset="0" style="stop-color:#FFFFFF;stop-opacity:0"/>
			<stop  offset="1" style="stop-color:#FFFFFF"/>
		</radialGradient>
		
			<path style="opacity:0.58;clip-path:url(#SVGID_00000003101981092505686460000013713661033998272439_);fill:url(#SVGID_00000072976316145537598940000018375497619415911829_);" d="
			M1508.471,1025.226c-10.198-1.807-17-11.539-15.193-21.737c1.807-10.198,11.539-17,21.737-15.193
			c10.198,1.807,17,11.538,15.193,21.736C1528.401,1020.23,1518.669,1027.032,1508.471,1025.226z"/>
		
			<radialGradient id="SVGID_00000057858246483863119590000017521932870531139252_" cx="1309.2712" cy="-151.8546" r="82.8656" gradientTransform="matrix(-0.1745 0.9847 -0.9847 -0.1745 1840.9504 -740.3324)" gradientUnits="userSpaceOnUse">
			<stop  offset="0" style="stop-color:#FFFFFF;stop-opacity:0"/>
			<stop  offset="1" style="stop-color:#FFFFFF"/>
		</radialGradient>
		
			<path style="opacity:0.58;clip-path:url(#SVGID_00000003101981092505686460000013713661033998272439_);fill:url(#SVGID_00000057858246483863119590000017521932870531139252_);" d="
			M1755.832,610.3c-19.272-3.414-32.127-21.805-28.713-41.077c3.415-19.272,21.806-32.127,41.077-28.712
			c19.272,3.415,32.127,21.806,28.712,41.077C1793.494,600.86,1775.103,613.715,1755.832,610.3z"/>
		<g id="Social_Media_1_" style="clip-path:url(#SVGID_00000003101981092505686460000013713661033998272439_);">
			<g>
				<g>
					<g>
						<g>
							<g>
								<path style="fill:#3E7A77;" d="M106.029,868.796c-1.567,0-2.842,1.277-2.842,2.845c0,1.566,1.276,2.841,2.842,2.841
									c1.567,0,2.843-1.275,2.843-2.841C108.872,870.073,107.597,868.796,106.029,868.796z"/>
								<path style="fill:#3E7A77;" d="M113.222,866.067l-0.002-0.007c-0.135-0.365-0.354-0.703-0.632-0.971
									c-0.279-0.287-0.615-0.505-0.979-0.639c-0.318-0.125-0.791-0.27-1.682-0.31c-1.032-0.047-1.34-0.056-3.897-0.056
									c-2.597,0-2.898,0.009-3.899,0.056c-0.891,0.04-1.362,0.185-1.675,0.306c-0.37,0.138-0.706,0.357-0.976,0.635
									c-0.287,0.278-0.505,0.614-0.64,0.979c-0.124,0.32-0.27,0.792-0.31,1.683c-0.046,1.029-0.056,1.336-0.056,3.897
									c0,2.559,0.01,2.866,0.056,3.896c0.041,0.888,0.187,1.363,0.308,1.678c0.138,0.369,0.356,0.704,0.635,0.976
									c0.281,0.289,0.607,0.5,0.978,0.638c0.318,0.124,0.791,0.269,1.683,0.31c0.999,0.047,1.3,0.056,3.896,0.056
									c2.598,0,2.899-0.009,3.898-0.056c0.891-0.041,1.364-0.186,1.677-0.309c0.742-0.286,1.331-0.875,1.618-1.616
									c0.122-0.316,0.267-0.79,0.308-1.678c0.046-1.013,0.056-1.317,0.056-3.896c0-2.581-0.01-2.884-0.056-3.897
									C113.488,866.853,113.343,866.38,113.222,866.067z M106.029,877.002c-2.957,0-5.362-2.406-5.362-5.362
									c0-2.957,2.406-5.363,5.362-5.363c2.957,0,5.362,2.406,5.362,5.363C111.391,874.596,108.986,877.002,106.029,877.002z
									 M111.2,868.017c-0.853,0-1.549-0.695-1.549-1.549s0.695-1.549,1.549-1.549c0.855,0,1.55,0.695,1.55,1.549
									C112.75,867.321,112.055,868.017,111.2,868.017z"/>
								<path style="fill:#3E7A77;" d="M106.029,855.155c-9.09,0-16.486,7.395-16.486,16.486c0,9.088,7.395,16.485,16.486,16.485
									c9.089,0,16.486-7.396,16.486-16.485C122.515,862.55,115.119,855.155,106.029,855.155z M116.046,875.653
									c-0.043,0.978-0.191,1.74-0.476,2.474c-0.541,1.399-1.655,2.513-3.055,3.052c-0.729,0.285-1.493,0.431-2.473,0.477
									c-1.026,0.047-1.368,0.059-4.012,0.059c-2.643,0-2.985-0.012-4.013-0.059c-0.98-0.045-1.742-0.192-2.474-0.477
									c-0.689-0.258-1.329-0.675-1.851-1.207c-0.532-0.52-0.939-1.146-1.204-1.85c-0.284-0.729-0.432-1.491-0.475-2.469
									c-0.049-1.043-0.059-1.389-0.059-4.012c0-2.625,0.011-2.971,0.059-4.014c0.043-0.979,0.19-1.741,0.476-2.474
									c0.263-0.7,0.67-1.323,1.208-1.851c0.515-0.525,1.157-0.944,1.85-1.205c0.73-0.282,1.493-0.428,2.471-0.473
									c1.025-0.047,1.368-0.059,4.012-0.059c2.643,0,2.986,0.012,4.012,0.059c0.978,0.045,1.742,0.191,2.473,0.474
									c0.69,0.26,1.332,0.679,1.852,1.209c0.525,0.514,0.944,1.157,1.204,1.85c0.284,0.73,0.431,1.491,0.475,2.469
									c0.048,1.046,0.059,1.394,0.059,4.014C116.105,874.259,116.094,874.607,116.046,875.653z"/>
							</g>
						</g>
						<g>
							<path style="fill:#3E7A77;" d="M162.386,855.155c-9.103,0-16.484,7.381-16.484,16.486c0,9.102,7.381,16.485,16.484,16.485
								c9.104,0,16.486-7.383,16.486-16.485C178.872,862.536,171.49,855.155,162.386,855.155L162.386,855.155z M169.915,868.008
								c0.006,0.162,0.01,0.325,0.01,0.488c0,5.001-3.806,10.766-10.766,10.766l0,0l0,0c-2.137,0-4.126-0.626-5.801-1.699
								c0.296,0.034,0.598,0.052,0.902,0.052c1.773,0,3.404-0.605,4.7-1.62c-1.656-0.031-3.054-1.125-3.535-2.629
								c0.231,0.044,0.468,0.068,0.711,0.068c0.345,0,0.68-0.046,0.998-0.133c-1.731-0.347-3.036-1.877-3.036-3.709
								c0-0.017,0-0.032,0.001-0.048c0.51,0.283,1.094,0.454,1.714,0.473c-1.017-0.678-1.684-1.837-1.684-3.15
								c0-0.693,0.187-1.342,0.512-1.902c1.866,2.29,4.655,3.795,7.799,3.953c-0.064-0.277-0.098-0.566-0.098-0.862
								c0-2.09,1.695-3.784,3.785-3.784c1.088,0,2.071,0.46,2.761,1.195c0.863-0.169,1.672-0.484,2.403-0.918
								c-0.283,0.883-0.882,1.624-1.664,2.093c0.766-0.092,1.495-0.295,2.173-0.596
								C171.294,866.807,170.652,867.474,169.915,868.008L169.915,868.008z M169.915,868.008"/>
						</g>
						<g>
							<path style="fill:#3E7A77;" d="M219.821,874.728l5.363-3.087l-5.363-3.089V874.728z M219.821,874.728"/>
							<path style="fill:#3E7A77;" d="M221.875,855.155c-9.104,0-16.486,7.381-16.486,16.486c0,9.102,7.383,16.485,16.486,16.485
								c9.103,0,16.485-7.383,16.485-16.485C238.36,862.536,230.978,855.155,221.875,855.155L221.875,855.155z M232.176,871.656
								c0,0,0,3.343-0.424,4.956c-0.238,0.883-0.934,1.578-1.815,1.815c-1.613,0.424-8.061,0.424-8.061,0.424s-6.433,0-8.061-0.441
								c-0.883-0.237-1.578-0.934-1.815-1.816c-0.426-1.596-0.426-4.954-0.426-4.954s0-3.343,0.426-4.956
								c0.237-0.883,0.949-1.596,1.815-1.833c1.612-0.424,8.061-0.424,8.061-0.424s6.448,0,8.061,0.44
								c0.882,0.238,1.578,0.934,1.815,1.817C232.193,868.298,232.176,871.656,232.176,871.656L232.176,871.656z M232.176,871.656"
								/>
						</g>
						<g>
							<path style="fill:#3E7A77;" d="M277.161,855.155c-9.105,0-16.486,7.38-16.486,16.486c0,9.104,7.381,16.485,16.486,16.485
								c9.105,0,16.485-7.381,16.485-16.485C293.646,862.535,286.266,855.155,277.161,855.155z M282.201,863.737
								c0,0-4.286-0.622-4.286,2.143v2.765h3.87l-0.483,4.217h-3.387v10.99h-4.286v-10.99l-3.663-0.07v-4.147h3.595v-3.18
								c0,0-0.238-4.73,4.424-5.599c1.936-0.361,4.217,0.139,4.217,0.139V863.737z"/>
						</g>
					</g>
				</g>
			</g>
		</g>
		<path style="clip-path:url(#SVGID_00000003101981092505686460000013713661033998272439_);fill:#75B5B1;" d="M1044.553,418.542
			c0,0,0-0.036,0.001-0.052c1.344,1.645,3.363,2.717,5.653,2.717c4.048,0,7.33-3.282,7.33-7.33c0-4.048-3.282-7.33-7.33-7.33
			c-4.048,0-7.33,3.282-7.33,7.33l-23.908,7.497c-0.886-2.38-1.983-4.657-3.264-6.812c0.003,0.001,0.005,0.003,0.008,0.004
			l7.218-5.956l-0.007-0.01c1.469,0.977,3.228,1.551,5.125,1.551c5.119,0,9.269-4.15,9.269-9.27s-4.15-9.27-9.269-9.27
			c-5.12,0-9.27,4.15-9.27,9.27c0,1.122,0.23,2.184,0.595,3.18l-0.051-0.066l-7.32,5.285l0,0.001
			c-1.412-1.714-2.962-3.308-4.623-4.78c0.001,0,0.007-0.003,0.007-0.003l10.687-15.465l-0.069-0.043
			c0.258,0.028,0.51,0.078,0.776,0.078c4.048,0,7.33-3.282,7.33-7.33c0-4.048-3.281-7.33-7.33-7.33c-4.048,0-7.33,3.282-7.33,7.33
			c0,1.432,0.427,2.757,1.136,3.886l-0.022-0.014l-11.077,14.512c0,0.001,0,0.002,0,0.003c-5.477-3.367-11.783-5.509-18.54-6.067
			v-25.706c0,0-0.019-0.014-0.029-0.022c2.279-1.243,3.844-3.631,3.844-6.41c0-4.048-3.281-7.33-7.329-7.33
			c-4.048,0-7.33,3.281-7.33,7.33c0,3.092,1.921,5.724,4.629,6.801c-0.001,0.003-0.002,0.004-0.003,0.007v25.268
			c-2.391,0.151-4.727,0.504-6.994,1.038l-3.137-7.743c2.325-1.685,3.853-4.403,3.853-7.493c0-5.12-4.15-9.27-9.27-9.27
			c-5.12,0-9.27,4.15-9.27,9.27c0,5.12,4.15,9.27,9.27,9.27l2.503,7.885c-2.318,0.934-4.534,2.066-6.626,3.379l-11.011-14.72
			c0,0-0.012,0-0.014,0c0.705-1.126,1.13-2.446,1.13-3.873c0-4.048-3.282-7.33-7.33-7.33c-4.048,0-7.33,3.282-7.33,7.33
			c0,4.048,3.282,7.33,7.33,7.33c0.376,0,0.736-0.056,1.096-0.11c0,0.007-0.001,0.012-0.001,0.02l10.968,15.169
			c-5.148,4.444-9.207,10.107-11.732,16.545l-24.26-6.817c0-4.048-3.282-7.33-7.33-7.33c-4.048,0-7.33,3.282-7.33,7.33
			c0,4.048,3.282,7.33,7.33,7.33c2.246,0,4.231-1.032,5.576-2.624c0.007,0.009,0.01,0.017,0.017,0.026l24.229,7.743
			c-0.519,2.195-0.865,4.455-1.026,6.768h-9.706c-1.241-3.658-4.664-6.308-8.742-6.308c-5.12,0-9.27,4.15-9.27,9.27
			c0,5.12,4.15,9.27,9.27,9.27c3.675,0,6.822-2.156,8.321-5.256c0.007,0.004,0.012,0.008,0.019,0.012h10.19
			c0.226,2.388,0.654,4.715,1.261,6.97l-16.866,6.032c-0.001,0.001-0.001,0.002-0.002,0.003c-1.303-1.887-3.475-3.127-5.941-3.127
			c-3.989,0-7.222,3.234-7.222,7.222c0,3.988,3.233,7.222,7.222,7.222c3.629,0,6.604-2.686,7.116-6.174
			c0.007,0.006,0.018,0.016,0.018,0.016l17.479-5.905c2.677,6.389,6.88,11.98,12.154,16.315l-15.416,20.443
			c-0.004,0.009-0.007,0.016-0.011,0.024c-0.588-0.154-1.194-0.263-1.831-0.263c-3.989,0-7.222,3.234-7.222,7.222
			s3.233,7.222,7.222,7.222c3.988,0,7.222-3.233,7.222-7.222c0-1.16-0.299-2.241-0.785-3.212l15.628-20.797
			c2.097,1.281,4.318,2.374,6.635,3.278l-3.286,9.412c-5.12,0-9.27,4.15-9.27,9.27c0,5.119,4.15,9.27,9.27,9.27
			c5.12,0,9.27-4.151,9.27-9.27c0-2.732-1.204-5.162-3.083-6.859l0.059,0.023l3.44-9.918c1.964,0.423,3.979,0.706,6.035,0.845
			c0,0.003-0.002,0.005-0.003,0.008v18.433c0,0,0.003,0.002,0.003,0.002c-2.613,1.121-4.445,3.713-4.445,6.737
			c0,4.048,3.282,7.33,7.33,7.33c4.048,0,7.329-3.282,7.329-7.33c0-3.023-1.832-5.617-4.446-6.737c0.001,0,0.002-0.001,0.002-0.002
			v-18.441c6.857-0.464,13.265-2.558,18.835-5.911c0,0.001,0,0.002,0,0.004l15.57,20.102l0.029-0.02
			c-0.682,1.103-1.094,2.391-1.094,3.782c0,3.988,3.233,7.222,7.222,7.222s7.222-3.233,7.222-7.222s-3.233-7.222-7.222-7.222
			c-0.443,0-0.871,0.054-1.292,0.13l0.024-0.016l-15.656-20.13c1.963-1.59,3.776-3.355,5.425-5.267
			c0.001,0.003,0.001,0.005,0.002,0.007l7.81,5.654c-0.242,0.827-0.412,1.684-0.412,2.59c0,5.12,4.15,9.27,9.27,9.27
			c5.119,0,9.269-4.15,9.269-9.27c0-5.12-4.15-9.27-9.269-9.27c-1.548,0-2.984,0.415-4.267,1.086l0.039-0.059l-8.333-5.632
			c1.074-1.764,2.021-3.614,2.83-5.536c0,0,0.001,0.001,0.001,0.001l18.117,5.922l0.012-0.044c0.54,3.516,3.551,6.217,7.217,6.217
			c4.048,0,7.33-3.282,7.33-7.33c0-4.048-3.282-7.33-7.33-7.33c-2.252,0-4.242,1.038-5.587,2.637l0.02-0.072l-17.79-5.934
			c0.848-3.335,1.302-6.828,1.302-10.427c0-3.205-0.37-6.322-1.047-9.323c0.004,0.001,0.006,0.002,0.01,0.003L1044.553,418.542z"/>
		<path style="clip-path:url(#SVGID_00000003101981092505686460000013713661033998272439_);fill:#75B5B1;" d="M582.974,1057.088
			c0,0,0.001-0.036,0.001-0.052c1.344,1.645,3.363,2.717,5.653,2.717c4.048,0,7.329-3.282,7.329-7.33c0-4.048-3.282-7.33-7.329-7.33
			c-4.048,0-7.33,3.282-7.33,7.33l-23.908,7.497c-0.886-2.38-1.983-4.657-3.264-6.812c0.003,0.001,0.005,0.003,0.008,0.004
			l7.218-5.956l-0.007-0.01c1.469,0.977,3.228,1.551,5.124,1.551c5.119,0,9.27-4.15,9.27-9.27c0-5.12-4.15-9.27-9.27-9.27
			c-5.12,0-9.27,4.151-9.27,9.27c0,1.123,0.23,2.184,0.596,3.18l-0.051-0.065l-7.32,5.285l0,0.001
			c-1.412-1.714-2.962-3.308-4.623-4.78c0,0,0.006-0.003,0.006-0.003l10.687-15.465l-0.069-0.043
			c0.258,0.028,0.51,0.078,0.776,0.078c4.048,0,7.33-3.282,7.33-7.33c0-4.048-3.282-7.33-7.33-7.33c-4.048,0-7.33,3.282-7.33,7.33
			c0,1.432,0.427,2.757,1.136,3.886l-0.022-0.014l-11.077,14.512c0,0.001,0,0.002,0,0.003c-5.477-3.367-11.783-5.509-18.54-6.067
			v-25.706c0,0-0.019-0.014-0.029-0.022c2.279-1.243,3.844-3.632,3.844-6.411c0-4.048-3.281-7.329-7.33-7.329
			c-4.048,0-7.33,3.281-7.33,7.329c0,3.092,1.921,5.725,4.629,6.801c-0.001,0.003-0.002,0.004-0.003,0.007v25.268
			c-2.391,0.151-4.727,0.504-6.994,1.038l-3.137-7.744c2.325-1.685,3.852-4.403,3.852-7.493c0-5.12-4.15-9.27-9.27-9.27
			c-5.12,0-9.27,4.15-9.27,9.27c0,5.12,4.15,9.27,9.27,9.27l2.503,7.885c-2.318,0.934-4.534,2.066-6.626,3.379l-11.011-14.72
			c0,0-0.012,0-0.014,0c0.705-1.126,1.13-2.446,1.13-3.873c0-4.048-3.282-7.33-7.33-7.33c-4.048,0-7.33,3.282-7.33,7.33
			c0,4.048,3.282,7.33,7.33,7.33c0.376,0,0.736-0.056,1.096-0.11c0,0.007-0.002,0.013-0.002,0.02l10.968,15.17
			c-5.148,4.444-9.207,10.107-11.732,16.545l-24.26-6.817c0-4.048-3.282-7.33-7.33-7.33c-4.048,0-7.33,3.282-7.33,7.33
			c0,4.048,3.282,7.33,7.33,7.33c2.246,0,4.232-1.032,5.576-2.624c0.006,0.009,0.01,0.017,0.017,0.025l24.229,7.744
			c-0.519,2.195-0.865,4.455-1.026,6.767h-9.707c-1.241-3.658-4.665-6.308-8.742-6.308c-5.12,0-9.27,4.15-9.27,9.27
			c0,5.12,4.15,9.27,9.27,9.27c3.675,0,6.822-2.156,8.321-5.256c0.007,0.004,0.012,0.009,0.019,0.012h10.19
			c0.226,2.388,0.654,4.716,1.261,6.97l-16.866,6.032c-0.001,0.001-0.001,0.002-0.002,0.003c-1.303-1.886-3.475-3.127-5.941-3.127
			c-3.989,0-7.222,3.234-7.222,7.222c0,3.989,3.233,7.222,7.222,7.222c3.629,0,6.604-2.686,7.116-6.174
			c0.007,0.006,0.018,0.016,0.018,0.016l17.479-5.905c2.677,6.389,6.88,11.979,12.154,16.315l-15.416,20.443
			c-0.004,0.008-0.007,0.016-0.011,0.024c-0.588-0.155-1.194-0.263-1.831-0.263c-3.989,0-7.222,3.234-7.222,7.222
			c0,3.989,3.233,7.222,7.222,7.222c3.989,0,7.222-3.233,7.222-7.222c0-1.16-0.299-2.24-0.785-3.212l15.629-20.797
			c2.096,1.281,4.318,2.374,6.635,3.279l-3.286,9.412c-5.12,0-9.27,4.15-9.27,9.27c0,5.12,4.15,9.27,9.27,9.27
			c5.12,0,9.27-4.15,9.27-9.27c0-2.732-1.203-5.162-3.083-6.859l0.059,0.023l3.44-9.918c1.964,0.423,3.979,0.705,6.035,0.845
			c-0.001,0.003-0.002,0.005-0.003,0.008v18.433c0,0,0.003,0.001,0.003,0.002c-2.612,1.12-4.445,3.713-4.445,6.737
			c0,4.048,3.282,7.33,7.33,7.33c4.048,0,7.33-3.281,7.33-7.33c0-3.024-1.832-5.617-4.445-6.737
			c0.001-0.001,0.001-0.001,0.002-0.001v-18.441c6.857-0.464,13.265-2.558,18.835-5.911c0,0.001,0,0.002,0,0.004l15.569,20.102
			l0.029-0.02c-0.682,1.103-1.094,2.391-1.094,3.782c0,3.989,3.233,7.222,7.222,7.222c3.989,0,7.222-3.233,7.222-7.222
			c0-3.989-3.233-7.222-7.222-7.222c-0.443,0-0.871,0.054-1.292,0.13l0.024-0.016l-15.657-20.13c1.963-1.59,3.776-3.355,5.425-5.267
			c0.001,0.003,0.001,0.005,0.002,0.007l7.81,5.653c-0.242,0.827-0.413,1.684-0.413,2.59c0,5.12,4.15,9.27,9.27,9.27
			c5.119,0,9.27-4.15,9.27-9.27s-4.15-9.27-9.27-9.27c-1.548,0-2.984,0.416-4.266,1.086l0.039-0.059l-8.333-5.632
			c1.074-1.764,2.021-3.614,2.83-5.536c0,0,0.001,0,0.001,0l18.117,5.922l0.012-0.044c0.54,3.516,3.551,6.217,7.217,6.217
			c4.048,0,7.33-3.282,7.33-7.33c0-4.048-3.282-7.33-7.33-7.33c-2.252,0-4.242,1.038-5.587,2.637l0.02-0.073l-17.79-5.934
			c0.848-3.335,1.302-6.828,1.302-10.427c0-3.205-0.37-6.322-1.047-9.323c0.003,0.001,0.006,0.002,0.009,0.003L582.974,1057.088z"/>
		<g style="clip-path:url(#SVGID_00000003101981092505686460000013713661033998272439_);">
			
				<radialGradient id="SVGID_00000125566741820298601410000013048387474430157999_" cx="1225.7943" cy="252.2327" r="36.8172" gradientUnits="userSpaceOnUse">
				<stop  offset="0" style="stop-color:#FFFFFF;stop-opacity:0"/>
				<stop  offset="0.1339" style="stop-color:#F8FBFB;stop-opacity:0.067"/>
				<stop  offset="0.3257" style="stop-color:#E5F1F0;stop-opacity:0.1629"/>
				<stop  offset="0.5524" style="stop-color:#C6E1DF;stop-opacity:0.2762"/>
				<stop  offset="0.8037" style="stop-color:#9CCAC7;stop-opacity:0.4018"/>
				<stop  offset="1" style="stop-color:#75B5B1;stop-opacity:0.5"/>
			</radialGradient>
			<circle style="fill:url(#SVGID_00000125566741820298601410000013048387474430157999_);" cx="1225.794" cy="252.233" r="36.817"/>
			<polygon style="fill:#52A39E;" points="1241.403,245.535 1232.492,245.535 1232.492,236.624 1219.096,236.624 1219.096,245.535 
				1210.185,245.535 1210.185,258.931 1219.096,258.931 1219.096,267.841 1232.492,267.841 1232.492,258.931 1241.403,258.931 			
				"/>
		</g>
		<g style="clip-path:url(#SVGID_00000003101981092505686460000013713661033998272439_);">
			
				<radialGradient id="SVGID_00000160895387578009513020000017401831812369307308_" cx="2.9004" cy="986.6688" r="44.7748" gradientUnits="userSpaceOnUse">
				<stop  offset="0" style="stop-color:#FFFFFF;stop-opacity:0"/>
				<stop  offset="0.1339" style="stop-color:#F8FBFB;stop-opacity:0.067"/>
				<stop  offset="0.3257" style="stop-color:#E5F1F0;stop-opacity:0.1629"/>
				<stop  offset="0.5524" style="stop-color:#C6E1DF;stop-opacity:0.2762"/>
				<stop  offset="0.8037" style="stop-color:#9CCAC7;stop-opacity:0.4018"/>
				<stop  offset="1" style="stop-color:#75B5B1;stop-opacity:0.5"/>
			</radialGradient>
			<circle style="fill:url(#SVGID_00000160895387578009513020000017401831812369307308_);" cx="2.9" cy="986.669" r="44.775"/>
			<polygon style="fill:#52A39E;" points="21.883,978.523 11.046,978.523 11.046,967.686 -5.246,967.686 -5.246,978.523 
				-16.082,978.523 -16.082,994.815 -5.246,994.815 -5.246,1005.651 11.046,1005.651 11.046,994.815 21.883,994.815 			"/>
		</g>
		<g style="clip-path:url(#SVGID_00000003101981092505686460000013713661033998272439_);">
			
				<radialGradient id="SVGID_00000050623345841587577990000013123768361618590850_" cx="672.7534" cy="856.1383" r="60.1223" gradientUnits="userSpaceOnUse">
				<stop  offset="0" style="stop-color:#FFFFFF;stop-opacity:0"/>
				<stop  offset="0.1339" style="stop-color:#F8FBFB;stop-opacity:0.067"/>
				<stop  offset="0.3257" style="stop-color:#E5F1F0;stop-opacity:0.1629"/>
				<stop  offset="0.5524" style="stop-color:#C6E1DF;stop-opacity:0.2762"/>
				<stop  offset="0.8037" style="stop-color:#9CCAC7;stop-opacity:0.4018"/>
				<stop  offset="1" style="stop-color:#75B5B1;stop-opacity:0.5"/>
			</radialGradient>
			<circle style="fill:url(#SVGID_00000050623345841587577990000013123768361618590850_);" cx="672.754" cy="856.138" r="60.122"/>
			<polygon style="fill:#52A39E;" points="698.243,845.2 683.691,845.2 683.691,830.649 661.815,830.649 661.815,845.2 
				647.264,845.2 647.264,867.076 661.815,867.076 661.815,881.627 683.691,881.627 683.691,867.076 698.243,867.076 			"/>
		</g>
		<path style="opacity:0.5;clip-path:url(#SVGID_00000003101981092505686460000013713661033998272439_);fill:#52A39E;" d="
			M1090.565,865.721c0,0,0.001-0.06,0.001-0.088c2.271,2.779,5.682,4.59,9.551,4.59c6.839,0,12.383-5.544,12.383-12.383
			c0-6.839-5.544-12.383-12.383-12.383c-6.839,0-12.383,5.544-12.383,12.383l-40.391,12.666c-1.497-4.021-3.35-7.868-5.515-11.509
			c0.005,0.003,0.009,0.005,0.014,0.007l12.193-10.062l-0.012-0.016c2.481,1.65,5.454,2.621,8.657,2.621
			c8.649,0,15.661-7.012,15.661-15.661c0-8.65-7.012-15.661-15.661-15.661c-8.65,0-15.661,7.012-15.661,15.661
			c0,1.896,0.388,3.69,1.006,5.372l-0.086-0.11l-12.368,8.928v0.001c-2.386-2.896-5.004-5.589-7.811-8.074
			c0.001-0.001,0.011-0.006,0.011-0.006l18.054-26.128l-0.117-0.073c0.437,0.047,0.862,0.132,1.311,0.132
			c6.838,0,12.383-5.544,12.383-12.383c0-6.838-5.544-12.383-12.383-12.383c-6.84,0-12.384,5.545-12.384,12.383
			c0,2.419,0.721,4.658,1.92,6.565l-0.038-0.023l-18.714,24.518c0,0.002,0.001,0.004,0.001,0.005
			c-9.253-5.688-19.907-9.306-31.322-10.249v-43.429c0,0-0.031-0.024-0.049-0.037c3.851-2.1,6.494-6.135,6.494-10.83
			c0-6.839-5.544-12.383-12.383-12.383c-6.838,0-12.383,5.544-12.383,12.383c0,5.224,3.245,9.671,7.82,11.49
			c-0.001,0.004-0.004,0.008-0.006,0.012v42.689c-4.04,0.256-7.986,0.852-11.816,1.753l-5.3-13.082
			c3.928-2.846,6.508-7.439,6.508-12.66c0-8.65-7.011-15.661-15.661-15.661c-8.649,0-15.66,7.011-15.66,15.661
			c0,8.65,7.011,15.661,15.66,15.661l4.228,13.321c-3.916,1.578-7.659,3.49-11.194,5.708l-18.602-24.868c0,0-0.021,0-0.024-0.001
			c1.191-1.902,1.909-4.133,1.909-6.544c0-6.838-5.544-12.383-12.383-12.383c-6.839,0-12.383,5.545-12.383,12.383
			c0,6.84,5.543,12.383,12.383,12.383c0.634,0,1.243-0.094,1.853-0.187c0,0.012-0.003,0.023-0.003,0.034l18.53,25.629
			c-8.697,7.507-15.555,17.075-19.821,27.952l-40.986-11.516c0-6.839-5.545-12.383-12.383-12.383
			c-6.839,0-12.384,5.544-12.384,12.383c0,6.839,5.545,12.383,12.384,12.383c3.795,0,7.148-1.743,9.42-4.431
			c0.011,0.014,0.017,0.027,0.028,0.042l40.934,13.083c-0.876,3.708-1.461,7.526-1.733,11.432h-16.399
			c-2.096-6.18-7.881-10.657-14.769-10.657c-8.65,0-15.661,7.012-15.661,15.662c0,8.649,7.011,15.661,15.661,15.661
			c6.209,0,11.525-3.642,14.058-8.88c0.012,0.007,0.02,0.014,0.032,0.021h17.215c0.382,4.034,1.104,7.966,2.13,11.775
			l-28.494,10.191c-0.001,0.002-0.001,0.004-0.003,0.006c-2.201-3.187-5.871-5.283-10.037-5.283
			c-6.739,0-12.202,5.462-12.202,12.201c0,6.738,5.462,12.202,12.202,12.202c6.131,0,11.158-4.539,12.022-10.43
			c0.012,0.01,0.031,0.027,0.031,0.027l29.531-9.977c4.522,10.793,11.622,20.238,20.533,27.562l-26.045,34.539
			c-0.008,0.014-0.011,0.026-0.018,0.041c-0.994-0.261-2.018-0.445-3.093-0.445c-6.739,0-12.202,5.463-12.202,12.202
			c0,6.738,5.463,12.201,12.202,12.201c6.738,0,12.201-5.463,12.201-12.201c0-1.96-0.506-3.785-1.326-5.426l26.403-35.135
			c3.542,2.164,7.295,4.011,11.209,5.539l-5.551,15.9c-8.65,0-15.662,7.012-15.662,15.661s7.012,15.661,15.662,15.661
			c8.649,0,15.661-7.012,15.661-15.661c0-4.615-2.033-8.721-5.209-11.587l0.1,0.039L965.474,965
			c3.319,0.715,6.724,1.192,10.196,1.427c-0.001,0.005-0.005,0.009-0.006,0.014v31.141c0,0,0.005,0.003,0.006,0.003
			c-4.414,1.893-7.509,6.274-7.509,11.381c0,6.839,5.544,12.383,12.383,12.383c6.84,0,12.383-5.545,12.383-12.383
			c0-5.108-3.096-9.488-7.511-11.381c0.002-0.001,0.002-0.002,0.004-0.003v-31.155c11.584-0.784,22.411-4.321,31.82-9.986
			c0,0.002,0,0.004,0,0.006l26.304,33.962l0.048-0.033c-1.152,1.863-1.849,4.038-1.849,6.389c0,6.738,5.463,12.201,12.201,12.201
			c6.738,0,12.201-5.463,12.201-12.201c0-6.738-5.463-12.202-12.201-12.202c-0.748,0-1.472,0.092-2.182,0.221l0.041-0.028
			l-26.45-34.008c3.316-2.687,6.38-5.668,9.165-8.899c0.001,0.005,0.001,0.008,0.003,0.012l13.194,9.551
			c-0.409,1.398-0.696,2.846-0.696,4.376c0,8.65,7.011,15.662,15.661,15.662c8.649,0,15.661-7.012,15.661-15.662
			c0-8.649-7.012-15.661-15.661-15.661c-2.615,0-5.042,0.702-7.208,1.834l0.065-0.1l-14.078-9.516
			c1.814-2.981,3.414-6.106,4.781-9.352c0.001,0,0.001,0.001,0.001,0.001l30.609,10.005l0.02-0.074
			c0.912,5.94,5.998,10.503,12.194,10.503c6.839,0,12.383-5.544,12.383-12.383c0-6.839-5.544-12.383-12.383-12.383
			c-3.806,0-7.168,1.753-9.44,4.454l0.035-0.122l-30.056-10.026c1.432-5.634,2.198-11.536,2.198-17.616
			c0-5.415-0.624-10.681-1.769-15.75c0.006,0.002,0.01,0.003,0.016,0.006L1090.565,865.721z"/>
		<path style="opacity:0.5;clip-path:url(#SVGID_00000003101981092505686460000013713661033998272439_);fill:#52A39E;" d="
			M1998.181,18.697c0,0,0.001-0.045,0.001-0.066c1.698,2.077,4.247,3.431,7.139,3.431c5.112,0,9.256-4.144,9.256-9.256
			s-4.144-9.257-9.256-9.257c-5.112,0-9.257,4.145-9.257,9.257l-30.192,9.468c-1.119-3.006-2.504-5.881-4.122-8.603
			c0.004,0.002,0.007,0.004,0.011,0.005l9.114-7.521l-0.009-0.012c1.855,1.233,4.077,1.959,6.472,1.959
			c6.465,0,11.707-5.241,11.707-11.707c0-6.466-5.241-11.707-11.707-11.707c-6.466,0-11.707,5.241-11.707,11.707
			c0,1.418,0.29,2.759,0.752,4.016l-0.065-0.082l-9.245,6.674v0.001c-1.783-2.165-3.74-4.178-5.839-6.036
			c0,0,0.008-0.004,0.008-0.004l13.496-19.531l-0.087-0.054c0.327,0.035,0.644,0.099,0.98,0.099c5.112,0,9.256-4.144,9.256-9.257
			c0-5.112-4.144-9.256-9.256-9.256c-5.113,0-9.257,4.145-9.257,9.256c0,1.808,0.539,3.482,1.435,4.907l-0.028-0.017l-13.989,18.327
			c0,0.001,0,0.002,0,0.004c-6.917-4.252-14.88-6.957-23.413-7.661v-32.463c0,0-0.023-0.018-0.037-0.028
			c2.879-1.57,4.854-4.586,4.854-8.096c0-5.112-4.144-9.256-9.256-9.256c-5.112,0-9.256,4.144-9.256,9.256
			c0,3.905,2.426,7.229,5.846,8.589c-0.001,0.003-0.003,0.006-0.004,0.009v31.91c-3.02,0.191-5.97,0.637-8.832,1.31l-3.962-9.779
			c2.936-2.127,4.865-5.56,4.865-9.463c0-6.466-5.241-11.707-11.707-11.707c-6.465,0-11.706,5.241-11.706,11.707
			c0,6.466,5.241,11.707,11.706,11.707l3.16,9.957c-2.927,1.18-5.725,2.609-8.368,4.267l-13.905-18.589c0,0-0.016,0-0.018,0
			c0.89-1.422,1.427-3.089,1.427-4.891c0-5.112-4.144-9.256-9.256-9.256c-5.113,0-9.256,4.145-9.256,9.256
			c0,5.113,4.144,9.257,9.256,9.257c0.474,0,0.929-0.071,1.385-0.14c0,0.009-0.002,0.017-0.002,0.025l13.851,19.157
			c-6.501,5.612-11.627,12.763-14.816,20.894l-30.637-8.609c0-5.112-4.144-9.257-9.257-9.257s-9.257,4.145-9.257,9.257
			s4.145,9.256,9.257,9.256c2.837,0,5.343-1.303,7.042-3.313c0.008,0.011,0.013,0.021,0.021,0.032l30.599,9.78
			c-0.655,2.772-1.092,5.626-1.295,8.546h-12.259c-1.567-4.62-5.891-7.966-11.04-7.966c-6.466,0-11.707,5.241-11.707,11.707
			c0,6.465,5.241,11.707,11.707,11.707c4.641,0,8.615-2.723,10.509-6.638c0.009,0.005,0.015,0.011,0.024,0.016h12.868
			c0.285,3.015,0.825,5.955,1.592,8.802l-21.299,7.618c-0.001,0.001-0.001,0.003-0.002,0.004c-1.645-2.382-4.388-3.949-7.503-3.949
			c-5.037,0-9.121,4.083-9.121,9.12c0,5.037,4.083,9.121,9.121,9.121c4.583,0,8.341-3.393,8.987-7.797
			c0.009,0.008,0.023,0.02,0.023,0.02l22.075-7.458c3.38,8.068,8.688,15.128,15.349,20.603l-19.469,25.818
			c-0.006,0.011-0.008,0.02-0.014,0.031c-0.743-0.196-1.508-0.333-2.312-0.333c-5.037,0-9.121,4.084-9.121,9.121
			c0,5.037,4.083,9.12,9.121,9.12c5.037,0,9.12-4.083,9.12-9.12c0-1.465-0.378-2.829-0.991-4.056l19.736-26.263
			c2.648,1.618,5.453,2.998,8.379,4.14l-4.15,11.886c-6.466,0-11.707,5.241-11.707,11.707c0,6.465,5.241,11.707,11.707,11.707
			c6.465,0,11.707-5.242,11.707-11.707c0-3.45-1.52-6.519-3.894-8.661l0.075,0.029l4.344-12.526
			c2.481,0.534,5.026,0.891,7.621,1.066c-0.001,0.004-0.003,0.007-0.004,0.011v23.278c0,0,0.004,0.002,0.004,0.002
			c-3.3,1.416-5.613,4.69-5.613,8.507c0,5.112,4.144,9.257,9.256,9.257c5.112,0,9.256-4.144,9.256-9.257
			c0-3.818-2.314-7.093-5.614-8.508c0.001,0,0.001-0.001,0.002-0.002V93.976c8.66-0.586,16.753-3.23,23.786-7.464
			c0,0.001,0,0.003,0,0.004l19.662,25.387l0.036-0.025c-0.861,1.392-1.382,3.018-1.382,4.776c0,5.037,4.083,9.12,9.12,9.12
			c5.037,0,9.12-4.083,9.12-9.12c0-5.037-4.083-9.121-9.12-9.121c-0.559,0-1.1,0.068-1.631,0.165l0.03-0.021l-19.772-25.421
			c2.479-2.008,4.769-4.237,6.851-6.652c0.001,0.003,0.001,0.006,0.003,0.009l9.863,7.139c-0.306,1.045-0.52,2.128-0.52,3.271
			c0,6.466,5.241,11.707,11.707,11.707c6.465,0,11.707-5.242,11.707-11.707c0-6.465-5.241-11.707-11.707-11.707
			c-1.954,0-3.769,0.525-5.388,1.371l0.049-0.075l-10.524-7.113c1.356-2.228,2.552-4.564,3.574-6.991c0.001,0,0.001,0,0.001,0.001
			l22.88,7.479l0.015-0.055c0.682,4.44,4.484,7.851,9.115,7.851c5.112,0,9.256-4.145,9.256-9.257s-4.144-9.256-9.256-9.256
			c-2.845,0-5.358,1.311-7.056,3.329l0.026-0.091l-22.467-7.495c1.071-4.212,1.643-8.623,1.643-13.168
			c0-4.048-0.466-7.984-1.322-11.773c0.005,0.001,0.008,0.003,0.012,0.004L1998.181,18.697z"/>
	</g>
</g>
<g id="PHOTOS_1_">
	<g>
		<defs>
			<rect id="SVGID_00000052092878508854594420000017036978476959743119_" width="1920" height="1080"/>
		</defs>
		<clipPath id="SVGID_00000052787312525985755430000010827625957586799275_">
			<use xlink:href="#SVGID_00000052092878508854594420000017036978476959743119_"  style="overflow:visible;"/>
		</clipPath>
		<g style="clip-path:url(#SVGID_00000052787312525985755430000010827625957586799275_);">
			<defs>
				<path id="SVGID_00000078033020016892067650000004392327909377590416_" d="M1911.215,216.823
					c0,0-518.567-104.199-534.356,183.117c-8.253,150.185,98.511,170.511,37.571,334.238
					c-39.497,106.115-43.096,253.983,83.97,270.705c127.066,16.721,292.803-140.878,444.73,0v-781.73L1911.215,216.823z"/>
			</defs>
			<clipPath id="SVGID_00000153684172402950338490000010051596706889826695_">
				<use xlink:href="#SVGID_00000078033020016892067650000004392327909377590416_"  style="overflow:visible;"/>
			</clipPath>
			<g style="clip-path:url(#SVGID_00000153684172402950338490000010051596706889826695_);">
				
					<rect x="1121.024" y="156.515" style="fill:#FFFFFF;stroke:#1D1D1B;stroke-width:0.4822;stroke-miterlimit:10;" width="876.485" height="876.485"/>
				<rect x="1121.024" y="156.515" style="fill:#8B8B8B;" width="73.04" height="73.04"/>
				<rect x="1194.065" y="229.556" style="fill:#8B8B8B;" width="73.04" height="73.041"/>
				<rect x="1267.105" y="156.515" style="fill:#8B8B8B;" width="73.04" height="73.04"/>
				<rect x="1340.145" y="229.556" style="fill:#8B8B8B;" width="73.041" height="73.041"/>
				<rect x="1413.186" y="156.515" style="fill:#8B8B8B;" width="73.04" height="73.04"/>
				<rect x="1486.226" y="229.556" style="fill:#8B8B8B;" width="73.04" height="73.041"/>
				<rect x="1559.267" y="156.515" style="fill:#8B8B8B;" width="73.04" height="73.04"/>
				<rect x="1632.307" y="229.556" style="fill:#8B8B8B;" width="73.04" height="73.041"/>
				<rect x="1705.347" y="156.515" style="fill:#8B8B8B;" width="73.041" height="73.04"/>
				<rect x="1778.388" y="229.556" style="fill:#8B8B8B;" width="73.04" height="73.041"/>
				<rect x="1851.428" y="156.515" style="fill:#8B8B8B;" width="73.04" height="73.04"/>
				<rect x="1924.468" y="229.556" style="fill:#8B8B8B;" width="73.041" height="73.041"/>
				<rect x="1121.024" y="302.596" style="fill:#8B8B8B;" width="73.04" height="73.04"/>
				<rect x="1194.065" y="375.637" style="fill:#8B8B8B;" width="73.04" height="73.04"/>
				<rect x="1267.105" y="302.596" style="fill:#8B8B8B;" width="73.04" height="73.04"/>
				<rect x="1340.145" y="375.637" style="fill:#8B8B8B;" width="73.041" height="73.04"/>
				<rect x="1413.186" y="302.596" style="fill:#8B8B8B;" width="73.04" height="73.04"/>
				<rect x="1486.226" y="375.637" style="fill:#8B8B8B;" width="73.04" height="73.04"/>
				<rect x="1559.267" y="302.596" style="fill:#8B8B8B;" width="73.04" height="73.04"/>
				<rect x="1632.307" y="375.637" style="fill:#8B8B8B;" width="73.04" height="73.04"/>
				<rect x="1705.347" y="302.596" style="fill:#8B8B8B;" width="73.041" height="73.04"/>
				<rect x="1778.388" y="375.637" style="fill:#8B8B8B;" width="73.04" height="73.04"/>
				<rect x="1851.428" y="302.596" style="fill:#8B8B8B;" width="73.04" height="73.04"/>
				<rect x="1924.468" y="375.637" style="fill:#8B8B8B;" width="73.041" height="73.04"/>
				<rect x="1121.024" y="448.677" style="fill:#8B8B8B;" width="73.04" height="73.041"/>
				<rect x="1194.065" y="521.717" style="fill:#8B8B8B;" width="73.04" height="73.04"/>
				<rect x="1267.105" y="448.677" style="fill:#8B8B8B;" width="73.04" height="73.041"/>
				<rect x="1340.145" y="521.717" style="fill:#8B8B8B;" width="73.041" height="73.04"/>
				<rect x="1413.186" y="448.677" style="fill:#8B8B8B;" width="73.04" height="73.041"/>
				<rect x="1486.226" y="521.717" style="fill:#8B8B8B;" width="73.04" height="73.04"/>
				<rect x="1559.267" y="448.677" style="fill:#8B8B8B;" width="73.04" height="73.041"/>
				<rect x="1632.307" y="521.717" style="fill:#8B8B8B;" width="73.04" height="73.04"/>
				<rect x="1705.347" y="448.677" style="fill:#8B8B8B;" width="73.041" height="73.041"/>
				<rect x="1778.388" y="521.717" style="fill:#8B8B8B;" width="73.04" height="73.04"/>
				<rect x="1851.428" y="448.677" style="fill:#8B8B8B;" width="73.04" height="73.041"/>
				<rect x="1924.468" y="521.717" style="fill:#8B8B8B;" width="73.041" height="73.04"/>
				<rect x="1121.024" y="594.758" style="fill:#8B8B8B;" width="73.04" height="73.04"/>
				<rect x="1194.065" y="667.798" style="fill:#8B8B8B;" width="73.04" height="73.04"/>
				<rect x="1267.105" y="594.758" style="fill:#8B8B8B;" width="73.04" height="73.04"/>
				<rect x="1340.145" y="667.798" style="fill:#8B8B8B;" width="73.041" height="73.04"/>
				<rect x="1413.186" y="594.758" style="fill:#8B8B8B;" width="73.04" height="73.04"/>
				<rect x="1486.226" y="667.798" style="fill:#8B8B8B;" width="73.04" height="73.04"/>
				<rect x="1559.267" y="594.758" style="fill:#8B8B8B;" width="73.04" height="73.04"/>
				<rect x="1632.307" y="667.798" style="fill:#8B8B8B;" width="73.04" height="73.04"/>
				<rect x="1705.347" y="594.758" style="fill:#8B8B8B;" width="73.041" height="73.04"/>
				<rect x="1778.388" y="667.798" style="fill:#8B8B8B;" width="73.04" height="73.04"/>
				<rect x="1851.428" y="594.758" style="fill:#8B8B8B;" width="73.04" height="73.04"/>
				<rect x="1924.468" y="667.798" style="fill:#8B8B8B;" width="73.041" height="73.04"/>
				<rect x="1121.024" y="740.839" style="fill:#8B8B8B;" width="73.04" height="73.04"/>
				<rect x="1194.065" y="813.879" style="fill:#8B8B8B;" width="73.04" height="73.04"/>
				<rect x="1267.105" y="740.839" style="fill:#8B8B8B;" width="73.04" height="73.04"/>
				<rect x="1340.145" y="813.879" style="fill:#8B8B8B;" width="73.041" height="73.04"/>
				<rect x="1413.186" y="740.839" style="fill:#8B8B8B;" width="73.04" height="73.04"/>
				<rect x="1486.226" y="813.879" style="fill:#8B8B8B;" width="73.04" height="73.04"/>
				<rect x="1559.267" y="740.839" style="fill:#8B8B8B;" width="73.04" height="73.04"/>
				<rect x="1632.307" y="813.879" style="fill:#8B8B8B;" width="73.04" height="73.04"/>
				<rect x="1705.347" y="740.839" style="fill:#8B8B8B;" width="73.041" height="73.04"/>
				<rect x="1778.388" y="813.879" style="fill:#8B8B8B;" width="73.04" height="73.04"/>
				<rect x="1851.428" y="740.839" style="fill:#8B8B8B;" width="73.04" height="73.04"/>
				<rect x="1924.468" y="813.879" style="fill:#8B8B8B;" width="73.041" height="73.04"/>
				<rect x="1121.024" y="886.919" style="fill:#8B8B8B;" width="73.04" height="73.041"/>
				<rect x="1194.065" y="959.96" style="fill:#8B8B8B;" width="73.04" height="73.04"/>
				<rect x="1267.105" y="886.919" style="fill:#8B8B8B;" width="73.04" height="73.041"/>
				<rect x="1340.145" y="959.96" style="fill:#8B8B8B;" width="73.041" height="73.04"/>
				<rect x="1413.186" y="886.919" style="fill:#8B8B8B;" width="73.04" height="73.041"/>
				<rect x="1486.226" y="959.96" style="fill:#8B8B8B;" width="73.04" height="73.04"/>
				<rect x="1559.267" y="886.919" style="fill:#8B8B8B;" width="73.04" height="73.041"/>
				<rect x="1632.307" y="959.96" style="fill:#8B8B8B;" width="73.04" height="73.04"/>
				<rect x="1705.347" y="886.919" style="fill:#8B8B8B;" width="73.041" height="73.041"/>
				<rect x="1778.388" y="959.96" style="fill:#8B8B8B;" width="73.04" height="73.04"/>
				<rect x="1851.428" y="886.919" style="fill:#8B8B8B;" width="73.04" height="73.041"/>
				<rect x="1924.468" y="959.96" style="fill:#8B8B8B;" width="73.041" height="73.04"/>
			</g>
		</g>
		<g style="clip-path:url(#SVGID_00000052787312525985755430000010827625957586799275_);">
			<defs>
				<path id="SVGID_00000060013688305441288190000000526886987033627037_" d="M1014.522,679.469c0,0-59.536,188.444,34.936,282.063
					c83.168,82.418,220.872,75.346,247.117,13.533s-23.891-195.58,27.708-298.352
					C1398.647,528.597,1137.962,343.76,1014.522,679.469z"/>
			</defs>
			<clipPath id="SVGID_00000163762570768788717390000010523466481458408079_">
				<use xlink:href="#SVGID_00000060013688305441288190000000526886987033627037_"  style="overflow:visible;"/>
			</clipPath>
			<g style="clip-path:url(#SVGID_00000163762570768788717390000010523466481458408079_);">
				
					<rect x="781.891" y="386.52" style="fill:#FFFFFF;stroke:#1D1D1B;stroke-width:0.3624;stroke-miterlimit:10;" width="658.751" height="658.751"/>
				<rect x="781.891" y="386.52" style="fill:#8B8B8B;" width="54.896" height="54.896"/>
				<rect x="836.787" y="441.416" style="fill:#8B8B8B;" width="54.896" height="54.896"/>
				<rect x="891.683" y="386.52" style="fill:#8B8B8B;" width="54.896" height="54.896"/>
				<rect x="946.579" y="441.416" style="fill:#8B8B8B;" width="54.896" height="54.896"/>
				<rect x="1001.475" y="386.52" style="fill:#8B8B8B;" width="54.896" height="54.896"/>
				<rect x="1056.371" y="441.416" style="fill:#8B8B8B;" width="54.896" height="54.896"/>
				<rect x="1111.267" y="386.52" style="fill:#8B8B8B;" width="54.896" height="54.896"/>
				<rect x="1166.163" y="441.416" style="fill:#8B8B8B;" width="54.896" height="54.896"/>
				<rect x="1221.058" y="386.52" style="fill:#8B8B8B;" width="54.896" height="54.896"/>
				<rect x="1275.954" y="441.416" style="fill:#8B8B8B;" width="54.896" height="54.896"/>
				<rect x="1330.85" y="386.52" style="fill:#8B8B8B;" width="54.896" height="54.896"/>
				<rect x="1385.746" y="441.416" style="fill:#8B8B8B;" width="54.896" height="54.896"/>
				<rect x="781.891" y="496.312" style="fill:#8B8B8B;" width="54.896" height="54.896"/>
				<rect x="836.787" y="551.208" style="fill:#8B8B8B;" width="54.896" height="54.896"/>
				<rect x="891.683" y="496.312" style="fill:#8B8B8B;" width="54.896" height="54.896"/>
				<rect x="946.579" y="551.208" style="fill:#8B8B8B;" width="54.896" height="54.896"/>
				<rect x="1001.475" y="496.312" style="fill:#8B8B8B;" width="54.896" height="54.896"/>
				<rect x="1056.371" y="551.208" style="fill:#8B8B8B;" width="54.896" height="54.896"/>
				<rect x="1111.267" y="496.312" style="fill:#8B8B8B;" width="54.896" height="54.896"/>
				<rect x="1166.163" y="551.208" style="fill:#8B8B8B;" width="54.896" height="54.896"/>
				<rect x="1221.058" y="496.312" style="fill:#8B8B8B;" width="54.896" height="54.896"/>
				<rect x="1275.954" y="551.208" style="fill:#8B8B8B;" width="54.896" height="54.896"/>
				<rect x="1330.85" y="496.312" style="fill:#8B8B8B;" width="54.896" height="54.896"/>
				<rect x="1385.746" y="551.208" style="fill:#8B8B8B;" width="54.896" height="54.896"/>
				<rect x="781.891" y="606.104" style="fill:#8B8B8B;" width="54.896" height="54.896"/>
				<rect x="836.787" y="661" style="fill:#8B8B8B;" width="54.896" height="54.896"/>
				<rect x="891.683" y="606.104" style="fill:#8B8B8B;" width="54.896" height="54.896"/>
				<rect x="946.579" y="661" style="fill:#8B8B8B;" width="54.896" height="54.896"/>
				<rect x="1001.475" y="606.104" style="fill:#8B8B8B;" width="54.896" height="54.896"/>
				<rect x="1056.371" y="661" style="fill:#8B8B8B;" width="54.896" height="54.896"/>
				<rect x="1111.267" y="606.104" style="fill:#8B8B8B;" width="54.896" height="54.896"/>
				<rect x="1166.163" y="661" style="fill:#8B8B8B;" width="54.896" height="54.896"/>
				<rect x="1221.058" y="606.104" style="fill:#8B8B8B;" width="54.896" height="54.896"/>
				<rect x="1275.954" y="661" style="fill:#8B8B8B;" width="54.896" height="54.896"/>
				<rect x="1330.85" y="606.104" style="fill:#8B8B8B;" width="54.896" height="54.896"/>
				<rect x="1385.746" y="661" style="fill:#8B8B8B;" width="54.896" height="54.896"/>
				<rect x="781.891" y="715.896" style="fill:#8B8B8B;" width="54.896" height="54.896"/>
				<rect x="836.787" y="770.792" style="fill:#8B8B8B;" width="54.896" height="54.896"/>
				<rect x="891.683" y="715.896" style="fill:#8B8B8B;" width="54.896" height="54.896"/>
				<rect x="946.579" y="770.792" style="fill:#8B8B8B;" width="54.896" height="54.896"/>
				<rect x="1001.475" y="715.896" style="fill:#8B8B8B;" width="54.896" height="54.896"/>
				<rect x="1056.371" y="770.792" style="fill:#8B8B8B;" width="54.896" height="54.896"/>
				<rect x="1111.267" y="715.896" style="fill:#8B8B8B;" width="54.896" height="54.896"/>
				<rect x="1166.163" y="770.792" style="fill:#8B8B8B;" width="54.896" height="54.896"/>
				<rect x="1221.058" y="715.896" style="fill:#8B8B8B;" width="54.896" height="54.896"/>
				<rect x="1275.954" y="770.792" style="fill:#8B8B8B;" width="54.896" height="54.896"/>
				<rect x="1330.85" y="715.896" style="fill:#8B8B8B;" width="54.896" height="54.896"/>
				<rect x="1385.746" y="770.792" style="fill:#8B8B8B;" width="54.896" height="54.896"/>
				<rect x="781.891" y="825.688" style="fill:#8B8B8B;" width="54.896" height="54.896"/>
				<rect x="836.787" y="880.584" style="fill:#8B8B8B;" width="54.896" height="54.896"/>
				<rect x="891.683" y="825.688" style="fill:#8B8B8B;" width="54.896" height="54.896"/>
				<rect x="946.579" y="880.584" style="fill:#8B8B8B;" width="54.896" height="54.896"/>
				<rect x="1001.475" y="825.688" style="fill:#8B8B8B;" width="54.896" height="54.896"/>
				<rect x="1056.371" y="880.584" style="fill:#8B8B8B;" width="54.896" height="54.896"/>
				<rect x="1111.267" y="825.688" style="fill:#8B8B8B;" width="54.896" height="54.896"/>
				<rect x="1166.163" y="880.584" style="fill:#8B8B8B;" width="54.896" height="54.896"/>
				<rect x="1221.058" y="825.688" style="fill:#8B8B8B;" width="54.896" height="54.896"/>
				<rect x="1275.954" y="880.584" style="fill:#8B8B8B;" width="54.896" height="54.896"/>
				<rect x="1330.85" y="825.688" style="fill:#8B8B8B;" width="54.896" height="54.896"/>
				<rect x="1385.746" y="880.584" style="fill:#8B8B8B;" width="54.896" height="54.896"/>
				<rect x="781.891" y="935.479" style="fill:#8B8B8B;" width="54.896" height="54.896"/>
				<rect x="836.787" y="990.376" style="fill:#8B8B8B;" width="54.896" height="54.896"/>
				<rect x="891.683" y="935.479" style="fill:#8B8B8B;" width="54.896" height="54.896"/>
				<rect x="946.579" y="990.376" style="fill:#8B8B8B;" width="54.896" height="54.896"/>
				<rect x="1001.475" y="935.479" style="fill:#8B8B8B;" width="54.896" height="54.896"/>
				<rect x="1056.371" y="990.376" style="fill:#8B8B8B;" width="54.896" height="54.896"/>
				<rect x="1111.267" y="935.479" style="fill:#8B8B8B;" width="54.896" height="54.896"/>
				<rect x="1166.163" y="990.376" style="fill:#8B8B8B;" width="54.896" height="54.896"/>
				<rect x="1221.058" y="935.479" style="fill:#8B8B8B;" width="54.896" height="54.896"/>
				<rect x="1275.954" y="990.376" style="fill:#8B8B8B;" width="54.896" height="54.896"/>
				<rect x="1330.85" y="935.479" style="fill:#8B8B8B;" width="54.896" height="54.896"/>
				<rect x="1385.746" y="990.376" style="fill:#8B8B8B;" width="54.896" height="54.896"/>
			</g>
		</g>
	</g>
</g>
<g id="TEXTS">
	
		<text transform="matrix(1 0 0 1 180.9766 146.6455)" style="fill:#52A39E; font-family:'BebasNeue-Bold'; font-size:59.0191px; letter-spacing:11;">MEDICAL CLINIC</text>
	<g>
		<g>
			<g>
				
					<text transform="matrix(1 0 0 1 900.5693 130.5654)" style="fill:#52A39E; font-family:'Poppins-Bold'; font-size:30.2003px; letter-spacing:6;">HOME</text>
			</g>
			<g>
				
					<text transform="matrix(1 0 0 1 1075.5049 130.5674)" style="fill:#52A39E; font-family:'Poppins-Bold'; font-size:30.2003px; letter-spacing:6;">SPECIALTIES</text>
			</g>
			<g>
				
					<text transform="matrix(1 0 0 1 1380.376 130.5674)" style="fill:#52A39E; font-family:'Poppins-Bold'; font-size:30.2003px; letter-spacing:6;">PLANS</text>
			</g>
			<g>
				
					<text transform="matrix(1 0 0 1 1590.6592 130.5674)" style="fill:#52A39E; font-family:'Poppins-Bold'; font-size:30.2003px; letter-spacing:6;">CONTACT</text>
			</g>
		</g>
	</g>
	<g>
		<text transform="matrix(1 0 0 1 89.5439 397.9141)" style="fill:#3E7A77; font-family:'BebasNeue-Bold'; font-size:115.9136px;">we care for you</text>
	</g>
	<g>
		<text transform="matrix(1 0 0 1 89.5439 566.5371)" style="fill:#81D9D8; font-family:'BebasNeue-Bold'; font-size:185.5102px;">health care</text>
	</g>
	<g>
		<text transform="matrix(1 0 0 1 89.5439 624.373)"><tspan x="0" y="0" style="fill:#3E7A77; font-family:'Poppins-Regular'; font-size:27.5653px; letter-spacing:2;">SPECIAL JORNYSB GYMNUY MUNILU LIBUT UNIG </tspan><tspan x="0" y="42.959" style="fill:#3E7A77; font-family:'Poppins-Regular'; font-size:27.5653px; letter-spacing:2;">LOVU NUMU LUMINI ODCUMENT SOLIT UN</tspan><tspan x="0" y="85.917" style="fill:#3E7A77; font-family:'Poppins-Regular'; font-size:27.5653px; letter-spacing:2;">UINS UNIDINTE UNATB ILD.</tspan></text>
	</g>
	<g>
		
			<text transform="matrix(1 0 0 1 120.7803 796.0166)" style="fill:#FFFFFF; font-family:'Poppins-Bold'; font-size:30.662px; letter-spacing:6;">read more</text>
	</g>
</g>
</svg>
